<?xml version="1.0" standalone="no"?>
<!DOCTYPE svg PUBLIC "-//W3C//DTD SVG 20010904//EN"
 "http://www.w3.org/TR/2001/REC-SVG-20010904/DTD/svg10.dtd">
<svg version="1.0" xmlns="http://www.w3.org/2000/svg"
 width="360.000000pt" height="360.000000pt" viewBox="0 0 360.000000 360.000000"
 preserveAspectRatio="xMidYMid meet">

<g transform="translate(0.000000,360.000000) scale(0.100000,-0.100000)"
fill="#000000" stroke="none">
<path d="M1700 2894 c-137 -21 -293 -65 -375 -106 -261 -131 -463 -363 -554
-633 -43 -130 -55 -204 -54 -350 0 -177 30 -310 103 -467 16 -37 30 -77 30
-90 0 -20 -34 -150 -120 -461 -12 -43 -20 -80 -18 -83 2 -2 47 8 99 22 234 63
441 114 463 114 13 0 52 -13 87 -29 142 -64 285 -93 449 -92 135 1 199 10 318
47 336 102 608 374 714 714 39 123 48 188 48 330 0 147 -9 209 -51 340 -122
380 -455 665 -855 735 -79 14 -221 18 -284 9z m359 -203 c327 -96 573 -364
643 -699 16 -79 19 -121 15 -227 -10 -248 -95 -437 -276 -615 -137 -136 -290
-214 -481 -246 -208 -34 -377 -9 -578 88 l-82 40 -165 -43 c-91 -23 -168 -39
-172 -36 -3 4 9 60 27 124 50 180 50 205 1 307 -85 173 -106 278 -98 473 4
107 10 143 35 220 56 165 123 276 237 387 118 115 246 188 395 226 113 29 114
29 275 25 117 -2 166 -7 224 -24z m-946 -115 c4 -10 1 -13 -8 -9 -8 3 -12 9
-9 14 7 12 11 11 17 -5z m-79 -82 c3 -8 2 -12 -4 -9 -6 3 -10 10 -10 16 0 14
7 11 14 -7z m1526 -100 c0 -8 -19 -13 -24 -6 -3 5 1 9 9 9 8 0 15 -2 15 -3z
m-1630 -269 c0 -5 -5 -3 -10 5 -5 8 -10 20 -10 25 0 6 5 3 10 -5 5 -8 10 -19
10 -25z m-63 -1047 c-3 -8 -6 -5 -6 6 -1 11 2 17 5 13 3 -3 4 -12 1 -19z
m1513 -28 c-8 -5 -19 -10 -25 -10 -5 0 -3 5 5 10 8 5 20 10 25 10 6 0 3 -5 -5
-10z m-90 -64 c0 -2 -7 -7 -16 -10 -8 -3 -12 -2 -9 4 6 10 25 14 25 6z m-163
-202 c-3 -3 -12 -4 -19 -1 -8 3 -5 6 6 6 11 1 17 -2 13 -5z m-80 -20 c-3 -3
-12 -4 -19 -1 -8 3 -5 6 6 6 11 1 17 -2 13 -5z"/>
<path d="M1370 2288 c-73 -49 -131 -184 -117 -270 35 -212 323 -540 581 -662
80 -38 193 -66 266 -66 74 0 146 28 192 74 34 35 60 103 56 147 -3 33 -8 36
-128 97 -68 34 -128 62 -132 62 -4 0 -34 -32 -65 -71 -57 -70 -59 -71 -99 -66
-89 9 -261 138 -350 263 -44 61 -57 115 -33 129 22 14 69 89 69 110 0 27 -86
234 -105 254 -7 7 -33 15 -56 18 -35 4 -51 0 -79 -19z m174 -174 c3 -8 2 -12
-4 -9 -6 3 -10 10 -10 16 0 14 7 11 14 -7z m583 -480 c-3 -3 -12 -4 -19 -1 -8
3 -5 6 6 6 11 1 17 -2 13 -5z m-452 -144 c-3 -5 -12 -10 -18 -10 -7 0 -6 4 3
10 19 12 23 12 15 0z m588 -65 c-3 -9 -8 -14 -10 -11 -3 3 -2 9 2 15 9 16 15
13 8 -4z m37 1 c0 -2 -8 -10 -17 -17 -16 -13 -17 -12 -4 4 13 16 21 21 21 13z"/>
</g>
</svg>
